#Comment line ignore any data following # character 
#Hierarchical Translation and Rotation (.htr) file 
[Header]	
#Header keywords are followed by a single value 
FileType HTR		#Single word string
DataType HTRS		#Translation followed by rotation and scale data
FileVersion 1		#integer
NumSegments 84		#integer
NumFrames 2		#integer
DataFrameRate 30		#integer, data frame rate in this file
EulerRotationOrder ZYX
CalibrationUnits mm
RotationUnits Degrees
GlobalAxisofGravity Y
BoneLengthAxis Y
ScaleFactor 1.00
[SegmentNames&Hierarchy]
#CHILD	PARENT
MASTER GLOBAL
root MASTER
chest root
L_mid_tent01 root
R_mid_tent01 root
spine01 root
Bip01_Neck chest
L_humerus chest
R_humerus chest
weapon_bone chest
Bip01_Head Bip01_Neck
eye_left_bone Bip01_Head
eye_right_bone Bip01_Head
L_forearm L_humerus
L_front_hand L_forearm
L_weapon_bone L_forearm
L_front_hand01_01 L_front_hand
L_front_hand02_01 L_front_hand
L_front_hand03_01 L_front_hand
L_front_hand01_02 L_front_hand01_01
L_front_hand02_02 L_front_hand02_01
L_front_hand03_02 L_front_hand03_01
R_forearm R_humerus
R_front_hand R_forearm
R_weapon_bone R_forearm
R_front_hand01_01 R_front_hand
R_front_hand02_01 R_front_hand
R_front_hand03_01 R_front_hand
R_front_hand01_02 R_front_hand01_01
R_front_hand02_02 R_front_hand02_01
R_front_hand03_02 R_front_hand03_01
null_rope01_connect L_mid_tent01
Rope1_Seg01 null_rope01_connect
Rope1_Seg02 Rope1_Seg01
Rope1_Seg03 Rope1_Seg02
Rope1_Seg04 Rope1_Seg03
Rope1_Seg05 Rope1_Seg04
Rope1_Seg06 Rope1_Seg05
Rope1_Seg07 Rope1_Seg06
Rope1_Seg09 Rope1_Seg07
L_mid_hand01 Rope1_Seg09
L_mid_hand02 Rope1_Seg09
L_mid_hand03 Rope1_Seg09
null_rope02_connect R_mid_tent01
Rope2_Seg01 null_rope02_connect
Rope2_Seg02 Rope2_Seg01
Rope2_Seg03 Rope2_Seg02
Rope2_Seg04 Rope2_Seg03
Rope2_Seg05 Rope2_Seg04
Rope2_Seg06 Rope2_Seg05
Rope2_Seg07 Rope2_Seg06
Rope2_Seg09 Rope2_Seg07
R_mid_hand01 Rope2_Seg09
R_mid_hand02 Rope2_Seg09
R_mid_hand03 Rope2_Seg09
spine02 spine01
spine03 spine02
pelvis spine03
null_rope03_connect pelvis
null_rope04_connect pelvis
Rope3_Seg01 null_rope03_connect
Rope3_Seg02 Rope3_Seg01
Rope3_Seg03 Rope3_Seg02
Rope3_Seg04 Rope3_Seg03
Rope3_Seg05 Rope3_Seg04
Rope3_Seg06 Rope3_Seg05
Rope3_Seg07 Rope3_Seg06
Rope3_Seg08 Rope3_Seg07
Rope3_Seg09 Rope3_Seg08
R_rear_hand01 Rope3_Seg09
R_rear_hand02 Rope3_Seg09
R_rear_hand03 Rope3_Seg09
Rope4_Seg01 null_rope04_connect
Rope4_Seg02 Rope4_Seg01
Rope4_Seg03 Rope4_Seg02
Rope4_Seg04 Rope4_Seg03
Rope4_Seg05 Rope4_Seg04
Rope4_Seg06 Rope4_Seg05
Rope4_Seg07 Rope4_Seg06
Rope4_Seg08 Rope4_Seg07
Rope4_Seg09 Rope4_Seg08
L_rear_hand01 Rope4_Seg09
L_rear_hand02 Rope4_Seg09
L_rear_hand03 Rope4_Seg09
[BasePosition]
#SegmentName Tx, Ty, Tz, Rx, Ry, Rz, BoneLength
MASTER 0.000000 0.000000 0.000000 -90.000000 0.000000 0.000000 10.000000 
root 0.000000 0.000000 0.000000 0.000000 0.000000 0.000000 10.000000 
chest 0.000000 0.000000 0.000000 0.000000 0.000000 0.000000 10.000000 
L_mid_tent01 0.000000 0.000000 0.000000 0.000000 0.000000 0.000000 10.000000 
R_mid_tent01 0.000000 0.000000 0.000000 0.000000 0.000000 0.000000 10.000000 
spine01 0.000000 0.000000 0.000000 0.000000 0.000000 0.000000 10.000000 
Bip01_Neck 0.000000 0.000000 0.000000 0.000000 0.000000 0.000000 10.000000 
L_humerus 0.000000 0.000000 0.000000 0.000000 0.000000 0.000000 10.000000 
R_humerus 0.000000 0.000000 0.000000 0.000000 0.000000 0.000000 10.000000 
weapon_bone 0.000000 0.000000 0.000000 0.000000 0.000000 0.000000 10.000000 
Bip01_Head 0.000000 0.000000 0.000000 0.000000 0.000000 0.000000 10.000000 
eye_left_bone 0.000000 0.000000 0.000000 0.000000 0.000000 0.000000 10.000000 
eye_right_bone 0.000000 0.000000 0.000000 0.000000 0.000000 0.000000 10.000000 
L_forearm 0.000000 0.000000 0.000000 0.000000 0.000000 0.000000 10.000000 
L_front_hand 0.000000 0.000000 0.000000 0.000000 0.000000 0.000000 10.000000 
L_weapon_bone 0.000000 0.000000 0.000000 0.000000 0.000000 0.000000 10.000000 
L_front_hand01_01 0.000000 0.000000 0.000000 0.000000 0.000000 0.000000 10.000000 
L_front_hand02_01 0.000000 0.000000 0.000000 0.000000 0.000000 0.000000 10.000000 
L_front_hand03_01 0.000000 0.000000 0.000000 0.000000 0.000000 0.000000 10.000000 
L_front_hand01_02 0.000000 0.000000 0.000000 0.000000 0.000000 0.000000 10.000000 
L_front_hand02_02 0.000000 0.000000 0.000000 0.000000 0.000000 0.000000 10.000000 
L_front_hand03_02 0.000000 0.000000 0.000000 0.000000 0.000000 0.000000 10.000000 
R_forearm 0.000000 0.000000 0.000000 0.000000 0.000000 0.000000 10.000000 
R_front_hand 0.000000 0.000000 0.000000 0.000000 0.000000 0.000000 10.000000 
R_weapon_bone 0.000000 0.000000 0.000000 0.000000 0.000000 0.000000 10.000000 
R_front_hand01_01 0.000000 0.000000 0.000000 0.000000 0.000000 0.000000 10.000000 
R_front_hand02_01 0.000000 0.000000 0.000000 0.000000 0.000000 0.000000 10.000000 
R_front_hand03_01 0.000000 0.000000 0.000000 0.000000 0.000000 0.000000 10.000000 
R_front_hand01_02 0.000000 0.000000 0.000000 0.000000 0.000000 0.000000 10.000000 
R_front_hand02_02 0.000000 0.000000 0.000000 0.000000 0.000000 0.000000 10.000000 
R_front_hand03_02 0.000000 0.000000 0.000000 0.000000 0.000000 0.000000 10.000000 
null_rope01_connect 0.000000 0.000000 0.000000 0.000000 0.000000 0.000000 10.000000 
Rope1_Seg01 0.000000 0.000000 0.000000 0.000000 0.000000 0.000000 10.000000 
Rope1_Seg02 0.000000 0.000000 0.000000 0.000000 0.000000 0.000000 10.000000 
Rope1_Seg03 0.000000 0.000000 0.000000 0.000000 0.000000 0.000000 10.000000 
Rope1_Seg04 0.000000 0.000000 0.000000 0.000000 0.000000 0.000000 10.000000 
Rope1_Seg05 0.000000 0.000000 0.000000 0.000000 0.000000 0.000000 10.000000 
Rope1_Seg06 0.000000 0.000000 0.000000 0.000000 0.000000 0.000000 10.000000 
Rope1_Seg07 0.000000 0.000000 0.000000 0.000000 0.000000 0.000000 10.000000 
Rope1_Seg09 0.000000 0.000000 0.000000 0.000000 0.000000 0.000000 10.000000 
L_mid_hand01 0.000000 0.000000 0.000000 0.000000 0.000000 0.000000 10.000000 
L_mid_hand02 0.000000 0.000000 0.000000 0.000000 0.000000 0.000000 10.000000 
L_mid_hand03 0.000000 0.000000 0.000000 0.000000 0.000000 0.000000 10.000000 
null_rope02_connect 0.000000 0.000000 0.000000 0.000000 0.000000 0.000000 10.000000 
Rope2_Seg01 0.000000 0.000000 0.000000 0.000000 0.000000 0.000000 10.000000 
Rope2_Seg02 0.000000 0.000000 0.000000 0.000000 0.000000 0.000000 10.000000 
Rope2_Seg03 0.000000 0.000000 0.000000 0.000000 0.000000 0.000000 10.000000 
Rope2_Seg04 0.000000 0.000000 0.000000 0.000000 0.000000 0.000000 10.000000 
Rope2_Seg05 0.000000 0.000000 0.000000 0.000000 0.000000 0.000000 10.000000 
Rope2_Seg06 0.000000 0.000000 0.000000 0.000000 0.000000 0.000000 10.000000 
Rope2_Seg07 0.000000 0.000000 0.000000 0.000000 0.000000 0.000000 10.000000 
Rope2_Seg09 0.000000 0.000000 0.000000 0.000000 0.000000 0.000000 10.000000 
R_mid_hand01 0.000000 0.000000 0.000000 0.000000 0.000000 0.000000 10.000000 
R_mid_hand02 0.000000 0.000000 0.000000 0.000000 0.000000 0.000000 10.000000 
R_mid_hand03 0.000000 0.000000 0.000000 0.000000 0.000000 0.000000 10.000000 
spine02 0.000000 0.000000 0.000000 0.000000 0.000000 0.000000 10.000000 
spine03 0.000000 0.000000 0.000000 0.000000 0.000000 0.000000 10.000000 
pelvis 0.000000 0.000000 0.000000 0.000000 0.000000 0.000000 10.000000 
null_rope03_connect 0.000000 0.000000 0.000000 0.000000 0.000000 0.000000 10.000000 
null_rope04_connect 0.000000 0.000000 0.000000 0.000000 0.000000 0.000000 10.000000 
Rope3_Seg01 0.000000 0.000000 0.000000 0.000000 0.000000 0.000000 10.000000 
Rope3_Seg02 0.000000 0.000000 0.000000 0.000000 0.000000 0.000000 10.000000 
Rope3_Seg03 0.000000 0.000000 0.000000 0.000000 0.000000 0.000000 10.000000 
Rope3_Seg04 0.000000 0.000000 0.000000 0.000000 0.000000 0.000000 10.000000 
Rope3_Seg05 0.000000 0.000000 0.000000 0.000000 0.000000 0.000000 10.000000 
Rope3_Seg06 0.000000 0.000000 0.000000 0.000000 0.000000 0.000000 10.000000 
Rope3_Seg07 0.000000 0.000000 0.000000 0.000000 0.000000 0.000000 10.000000 
Rope3_Seg08 0.000000 0.000000 0.000000 0.000000 0.000000 0.000000 10.000000 
Rope3_Seg09 0.000000 0.000000 0.000000 0.000000 0.000000 0.000000 10.000000 
R_rear_hand01 0.000000 0.000000 0.000000 0.000000 0.000000 0.000000 10.000000 
R_rear_hand02 0.000000 0.000000 0.000000 0.000000 0.000000 0.000000 10.000000 
R_rear_hand03 0.000000 0.000000 0.000000 0.000000 0.000000 0.000000 10.000000 
Rope4_Seg01 0.000000 0.000000 0.000000 0.000000 0.000000 0.000000 10.000000 
Rope4_Seg02 0.000000 0.000000 0.000000 0.000000 0.000000 0.000000 10.000000 
Rope4_Seg03 0.000000 0.000000 0.000000 0.000000 0.000000 0.000000 10.000000 
Rope4_Seg04 0.000000 0.000000 0.000000 0.000000 0.000000 0.000000 10.000000 
Rope4_Seg05 0.000000 0.000000 0.000000 0.000000 0.000000 0.000000 10.000000 
Rope4_Seg06 0.000000 0.000000 0.000000 0.000000 0.000000 0.000000 10.000000 
Rope4_Seg07 0.000000 0.000000 0.000000 0.000000 0.000000 0.000000 10.000000 
Rope4_Seg08 0.000000 0.000000 0.000000 0.000000 0.000000 0.000000 10.000000 
Rope4_Seg09 0.000000 0.000000 0.000000 0.000000 0.000000 0.000000 10.000000 
L_rear_hand01 0.000000 0.000000 0.000000 0.000000 0.000000 0.000000 10.000000 
L_rear_hand02 0.000000 0.000000 0.000000 0.000000 0.000000 0.000000 10.000000 
L_rear_hand03 0.000000 0.000000 0.000000 0.000000 0.000000 0.000000 10.000000 
#Beginning of Data. Separated by tabs
#Fr	Tx	Ty	Tz	Rx	Ry	Rz	SF
[MASTER]
2 -0.000048 291.122894 2.013399 0.001660 0.001660 0.001660 291.129852
3 -0.000099 591.204712 0.101077 0.001660 0.001660 0.001660 591.204712
[root]
2 -16.862371 5.340129 1449.234497 -91.426239 -9.928842 -89.596886 1449.342407
3 -17.864712 0.873489 1451.780151 -90.613464 -8.451450 -89.931458 1451.890381
[chest]
2 -84.512650 -34.090519 0.000000 -2.166080 0.000868 168.338928 91.129311
3 -84.512650 -34.090519 0.000000 -2.162621 0.021473 168.621933 91.129311
[L_mid_tent01]
2 27.299103 22.179148 -249.918701 -18.171530 10.426115 13.750359 252.381683
3 27.299107 22.179153 -249.918701 -15.708984 8.790865 14.444729 252.381683
[R_mid_tent01]
2 23.228794 24.509907 226.238495 -169.195084 -15.492866 24.393696 228.744751
3 23.228794 24.509907 226.238495 -173.712891 -12.649498 24.561560 228.744751
[spine01]
2 -0.361383 -0.195265 0.000000 0.001970 0.001277 24.106306 0.410763
3 -0.361383 -0.195265 0.000000 0.001996 0.001236 26.463848 0.410763
[Bip01_Neck]
2 165.484543 71.581718 0.000119 176.643677 -1.657967 43.431915 180.302734
3 165.484543 71.581718 0.000119 176.643677 -1.657967 43.431911 180.302734
[L_humerus]
2 -13.983130 -135.272980 -120.471481 -5.881575 67.798836 84.125938 181.680161
3 -13.983130 -135.272980 -120.471481 -6.183286 66.879868 83.786369 181.680161
[R_humerus]
2 -13.983309 -135.273102 125.287651 27.319460 -68.772804 68.348198 184.909012
3 -13.983309 -135.273102 125.287651 26.870182 -67.806938 68.810997 184.909012
[weapon_bone]
2 235.964890 -300.705902 0.000000 0.000000 -89.951546 -128.212341 382.234833
3 235.964890 -300.705902 0.000000 0.000000 -89.951546 -128.212341 382.234833
[Bip01_Head]
2 213.441299 185.723526 11.674381 4.965891 3.028567 -43.896420 283.172577
3 213.438400 185.731430 11.571853 4.965356 3.801409 -43.882862 283.171356
[eye_left_bone]
2 -24.626970 125.451866 -64.772606 0.000000 -90.000000 -99.840431 143.318359
3 -24.626970 125.451866 -64.772606 0.000000 -90.000000 -99.840431 143.318359
[eye_right_bone]
2 -24.626970 125.451866 64.327362 0.000000 -89.980217 80.156387 143.117676
3 -24.626970 125.451866 64.327362 0.000000 -89.972023 80.156380 143.117676
[L_forearm]
2 322.776093 0.000000 -0.000119 0.000403 -0.002312 -109.783112 322.776093
3 322.776093 0.000000 -0.000119 0.000410 -0.002311 -110.097183 322.776093
[L_front_hand]
2 241.149185 -0.042021 -3.300071 -178.667953 -1.835447 -27.422350 241.171753
3 241.149185 -0.042021 -3.300071 -178.667953 -1.835447 -27.422350 241.171753
[L_weapon_bone]
2 156.183838 0.000000 0.000000 0.000014 0.000007 0.000001 156.183838
3 156.183838 0.000000 0.000000 0.000014 0.000007 0.000001 156.183838
[L_front_hand01_01]
2 86.095154 20.947098 -0.655860 -0.366594 -0.477154 75.385574 88.609184
3 86.095154 20.947098 -0.655860 -0.366594 -0.477154 75.385574 88.609184
[L_front_hand02_01]
2 86.935165 -11.437475 24.513514 154.399796 -59.883835 -61.369587 91.046425
3 86.935165 -11.437475 24.513514 154.399796 -59.883835 -61.369587 91.046425
[L_front_hand03_01]
2 86.637497 -14.123976 -20.424902 -153.913849 58.118122 -62.702866 90.126129
3 86.637497 -14.123976 -20.424902 -153.913849 58.118122 -62.702866 90.126129
[L_front_hand01_02]
2 71.020905 -0.000179 0.000030 0.000321 -0.002325 -105.723465 71.020905
3 71.020905 -0.000179 0.000030 0.000320 -0.002325 -105.686226 71.020905
[L_front_hand02_02]
2 71.020927 -0.000119 0.000060 0.000321 -0.002325 -105.723465 71.020927
3 71.020927 -0.000119 0.000060 0.000320 -0.002325 -105.686226 71.020927
[L_front_hand03_02]
2 71.020905 -0.000060 0.000060 0.000321 -0.002325 -105.723465 71.020905
3 71.020905 -0.000060 0.000060 0.000320 -0.002325 -105.686226 71.020905
[R_forearm]
2 322.776428 -0.000060 0.000030 0.201893 0.065803 -108.429031 322.776428
3 322.776428 -0.000060 0.000030 0.201711 0.066361 -108.745735 322.776428
[R_front_hand]
2 238.847015 -0.006795 2.210259 -2.635298 -10.645461 -26.312504 238.857239
3 238.847015 -0.006795 2.210259 -2.635298 -10.645461 -26.312506 238.857239
[R_weapon_bone]
2 155.664093 0.002503 -0.000030 0.003487 0.001180 -90.988930 155.664078
3 155.664093 0.002503 -0.000030 0.003487 0.001180 -90.988930 155.664078
[R_front_hand01_01]
2 87.624611 14.231146 22.918642 -154.633499 -59.950619 61.746044 91.683487
3 87.624611 14.231146 22.918642 -154.633499 -59.950619 61.746044 91.683487
[R_front_hand02_01]
2 89.356956 14.367283 -19.491137 154.602661 58.302849 63.744389 92.579636
3 89.356956 14.367283 -19.491137 154.602661 58.302849 63.744389 92.579636
[R_front_hand03_01]
2 87.286232 -22.307278 -0.143439 0.162155 -0.423168 -75.767921 90.091743
3 87.286232 -22.307278 -0.143439 0.162155 -0.423168 -75.767921 90.091743
[R_front_hand01_02]
2 71.020905 0.000060 0.000119 0.002323 -0.000334 106.381721 71.020905
3 71.020905 0.000060 0.000119 0.002323 -0.000334 106.381714 71.020905
[R_front_hand02_02]
2 71.020844 -0.000030 -0.000119 0.002323 -0.000334 106.381721 71.020836
3 71.020844 -0.000030 -0.000119 0.002323 -0.000334 106.381714 71.020836
[R_front_hand03_02]
2 71.020905 0.000000 0.000030 0.002323 -0.000334 106.381721 71.020905
3 71.020905 0.000000 0.000030 0.002323 -0.000334 106.381714 71.020905
[null_rope01_connect]
2 328.732483 0.000000 -0.000238 -156.771942 -67.929466 -118.578522 328.732483
3 328.732483 0.000000 -0.000238 -158.108246 -71.488739 -119.067970 328.732483
[Rope1_Seg01]
2 -0.000001 0.000037 0.000005 21.997095 4.714804 -109.478905 0.000037
3 -0.000003 0.000036 0.000010 0.283701 6.025422 -96.799622 0.000037
[Rope1_Seg02]
2 139.999863 -0.000179 0.000000 -0.221680 -0.230019 0.397749 139.999863
3 139.999863 -0.000179 0.000000 7.901546 -0.608678 -5.098702 139.999863
[Rope1_Seg03]
2 139.999924 0.000060 -0.000060 1.794456 -0.644776 -0.414053 139.999924
3 139.999924 0.000060 -0.000060 10.949725 -1.578170 -5.308980 139.999924
[Rope1_Seg04]
2 139.999924 -0.000060 -0.000119 2.722900 -0.861102 -0.751010 139.999924
3 139.999924 -0.000060 -0.000119 14.956142 -3.070129 -5.512733 139.999924
[Rope1_Seg05]
2 139.999832 0.000119 -0.000060 -10.835919 2.673439 4.524865 139.999832
3 139.999832 0.000119 -0.000060 -6.074121 2.239762 1.106374 139.999832
[Rope1_Seg06]
2 139.999954 0.000119 -0.000060 -8.791902 1.835725 4.803134 139.999954
3 139.999954 0.000119 -0.000060 -15.151047 4.615221 4.162445 139.999954
[Rope1_Seg07]
2 139.999985 0.000060 0.000000 -3.432341 0.462844 2.343182 139.999985
3 139.999985 0.000060 0.000000 -6.022573 1.536163 2.144867 139.999985
[Rope1_Seg09]
2 121.602913 0.000119 -0.000089 -89.793175 -1.359789 0.847147 121.602913
3 121.602913 0.000119 -0.000089 -89.793175 -1.359789 0.847147 121.602913
[L_mid_hand01]
2 103.859421 1.038730 8.195221 128.584747 -66.574249 -36.738117 104.187431
3 103.859421 1.038730 8.195221 124.165955 -63.799015 -31.873352 104.187431
[L_mid_hand02]
2 105.572853 -4.139662 -10.864139 -167.717957 43.141708 -71.740593 106.211075
3 105.572853 -4.139662 -10.864139 -164.626358 42.318848 -67.191460 106.211075
[L_mid_hand03]
2 104.641464 17.579376 -3.913581 -6.429527 17.666080 73.526825 106.179977
3 104.641464 17.579376 -3.913581 -7.501869 17.251593 69.949562 106.179977
[null_rope02_connect]
2 328.732849 0.000179 -0.000119 -136.845947 72.134842 -30.742367 328.732849
3 328.732849 0.000179 -0.000119 -131.062393 76.318909 -24.199705 328.732849
[Rope2_Seg01]
2 0.000039 0.000148 0.000000 83.472282 6.124168 -66.526474 0.000153
3 0.000041 0.000142 0.000000 88.216118 2.617577 -81.256149 0.000148
[Rope2_Seg02]
2 139.999741 -0.000060 -0.000119 -5.905476 1.428329 2.592746 139.999756
3 139.999741 -0.000060 -0.000119 -4.371751 7.124485 0.289728 139.999756
[Rope2_Seg03]
2 140.000107 0.000030 0.000000 -9.379891 3.287106 3.430990 140.000107
3 140.000107 0.000030 0.000000 -7.332953 7.890846 0.975597 140.000107
[Rope2_Seg04]
2 139.999802 0.000000 -0.000060 -11.843629 3.574417 4.313217 139.999802
3 139.999802 0.000000 -0.000060 -26.584963 14.103545 4.101133 139.999802
[Rope2_Seg05]
2 139.999985 -0.000060 0.000119 18.933041 -9.428082 -7.532621 139.999985
3 139.999985 -0.000060 0.000119 1.465788 -0.030778 -0.557642 139.999985
[Rope2_Seg06]
2 139.999893 -0.000030 -0.000119 13.670085 -13.905954 -6.014386 139.999893
3 139.999893 -0.000030 -0.000119 34.197079 -13.530578 -13.603271 139.999893
[Rope2_Seg07]
2 139.999893 0.000060 -0.000060 3.318001 -6.698768 -0.955839 139.999893
3 139.999893 0.000060 -0.000060 9.638617 -13.272668 -2.861198 139.999893
[Rope2_Seg09]
2 121.338966 0.000089 -0.000060 33.793236 -1.359788 -0.847141 121.338966
3 121.338966 0.000089 -0.000060 33.793236 -1.359788 -0.847141 121.338966
[R_mid_hand01]
2 104.680779 11.144459 -10.335981 -16.756907 45.078602 69.693840 105.778534
3 104.680779 11.144459 -10.335981 -18.237753 44.607113 67.592667 105.778534
[R_mid_hand02]
2 104.070427 2.443552 8.231699 49.966972 -67.318741 38.315926 104.424065
3 104.070427 2.443552 8.231699 52.237907 -66.108360 35.844143 104.424065
[R_mid_hand03]
2 106.028137 -11.221827 -5.996406 -176.940826 15.523118 -75.998016 106.788818
3 106.028137 -11.221827 -5.996406 -176.510086 15.433296 -74.380737 106.788818
[spine02]
2 129.756927 0.001550 0.000119 0.393311 -4.041375 -13.439286 129.756927
3 129.756927 0.001550 0.000119 0.429008 -4.037392 -13.894089 129.756927
[spine03]
2 78.614059 0.081629 -4.899014 1.916437 3.819555 16.798592 78.766594
3 78.614052 0.081624 -4.899014 1.935743 3.813304 17.084341 78.766586
[pelvis]
2 169.435242 0.051022 0.000000 -0.061507 -0.179872 14.750948 169.435257
3 169.435242 0.051022 0.000000 -0.062407 -0.179562 15.324641 169.435257
[null_rope03_connect]
2 -1.257226 -2.466202 137.391083 0.000000 -89.714012 57.726437 137.418976
3 -1.257226 -2.466202 137.391083 -9.233030 -89.398018 62.714264 137.418976
[null_rope04_connect]
2 -1.259640 -2.480268 -137.844437 0.000000 -89.714012 57.726437 137.872513
3 -1.259640 -2.480268 -137.844437 -9.233030 -89.398018 62.714264 137.872513
[Rope3_Seg01]
2 0.000010 0.000038 -0.000114 -133.459274 15.177145 -87.953934 0.000121
3 0.000010 0.000038 -0.000114 -132.721619 10.619694 -90.352219 0.000121
[Rope3_Seg02]
2 139.999924 -0.000119 0.000060 -0.253576 -4.086083 -2.557959 139.999924
3 139.999924 -0.000119 0.000060 -0.491372 -5.060389 -2.288692 139.999924
[Rope3_Seg03]
2 139.999924 -0.000119 0.000119 -0.012279 -4.299473 -3.452918 139.999924
3 139.999924 -0.000119 0.000119 -0.180247 -5.204171 -2.861906 139.999924
[Rope3_Seg04]
2 139.999924 0.000119 0.000000 0.261333 -5.236118 -5.998606 139.999924
3 139.999924 0.000119 0.000000 0.301735 -6.538221 -5.942913 139.999924
[Rope3_Seg05]
2 139.999924 -0.000238 0.000060 0.216335 -0.399207 5.165987 139.999924
3 139.999924 -0.000238 0.000060 0.246667 -1.939489 3.064623 139.999924
[Rope3_Seg06]
2 139.999893 -0.000119 -0.000060 0.308195 2.353073 9.824450 139.999893
3 139.999893 -0.000119 -0.000060 0.434840 2.055060 9.463087 139.999893
[Rope3_Seg07]
2 139.999771 0.000060 -0.000119 0.103035 0.670664 4.632766 139.999771
3 139.999771 0.000060 -0.000119 0.137982 0.604350 5.192266 139.999771
[Rope3_Seg08]
2 139.999985 -0.000060 0.000000 0.184081 0.373076 2.846340 139.999985
3 139.999985 -0.000060 0.000000 0.180434 0.209569 3.068689 139.999985
[Rope3_Seg09]
2 90.185997 -0.000179 -0.000060 89.793228 -1.359877 -0.847183 90.185997
3 90.185997 -0.000179 -0.000060 89.793228 -1.359877 -0.847183 90.185997
[R_rear_hand01]
2 103.366196 -6.073594 -10.757982 -177.375809 24.533825 -73.108765 104.101845
3 103.366196 -6.073594 -10.757982 -176.465668 24.425859 -70.909309 104.101845
[R_rear_hand02]
2 100.509819 12.039542 -7.992327 -13.406411 36.702328 71.277184 101.543350
3 100.509819 12.039542 -7.992327 -14.843726 36.213379 68.859123 101.543350
[R_rear_hand03]
2 101.539970 5.215704 5.435467 72.167244 -71.123337 20.795889 101.819031
3 101.539970 5.215704 5.435467 73.787918 -69.202950 19.069901 101.819031
[Rope4_Seg01]
2 0.000010 0.000038 -0.000114 49.757423 29.392296 -104.120102 0.000121
3 0.000010 0.000038 -0.000114 54.992321 27.221571 -91.349495 0.000121
[Rope4_Seg02]
2 139.999985 0.000060 0.000119 -0.345973 -0.958678 3.110945 139.999985
3 139.999985 0.000060 0.000119 -0.668744 -4.173445 0.877273 139.999985
[Rope4_Seg03]
2 139.999924 0.000000 -0.000238 -0.503636 -1.272193 4.053945 139.999924
3 139.999924 0.000000 -0.000238 -0.604457 -5.168111 1.033967 139.999924
[Rope4_Seg04]
2 139.999985 0.000000 0.000119 -2.058028 -3.914653 11.752929 139.999985
3 139.999985 0.000000 0.000119 -0.933877 -11.637825 3.517716 139.999985
[Rope4_Seg05]
2 139.999802 -0.000060 -0.000119 0.177840 0.398146 -0.536809 139.999802
3 139.999802 -0.000060 -0.000119 0.107050 -2.346834 -1.039357 139.999802
[Rope4_Seg06]
2 139.999924 0.000000 0.000060 1.503228 4.808546 -12.704106 139.999924
3 139.999924 0.000000 0.000060 -0.223969 9.985303 -5.366638 139.999924
[Rope4_Seg07]
2 139.999802 0.000000 0.000000 0.626363 1.389359 -3.988016 139.999802
3 139.999802 0.000000 0.000000 0.402510 3.596313 -2.207560 139.999802
[Rope4_Seg08]
2 139.999924 0.000000 0.000119 -1.189124 0.721504 -2.137698 139.999924
3 139.999924 0.000000 0.000119 -1.238642 1.779406 -1.189935 139.999924
[Rope4_Seg09]
2 90.185791 0.000060 0.000060 -135.617828 2.228885 0.850567 90.185791
3 90.185791 0.000060 0.000060 -135.617828 2.228885 0.850567 90.185791
[L_rear_hand01]
2 101.696655 -8.392275 -7.654577 -14.676043 -36.272404 110.857796 102.329041
3 101.696655 -8.392275 -7.654577 -18.919888 -34.466518 118.185951 102.329041
[L_rear_hand02]
2 102.726799 -1.568258 5.773216 73.610298 69.437729 160.740753 102.900848
3 102.726799 -1.568258 5.773216 77.226944 63.386848 164.679077 102.900848
[L_rear_hand03]
2 104.552910 9.721220 -10.420293 -176.571304 -24.441328 -108.830589 105.519653
3 104.552910 9.721220 -10.420293 -173.780411 -23.916803 -115.646591 105.519653
